<svg width="307" height="46" viewBox="0 0 307 46" fill="none" xmlns="http://www.w3.org/2000/svg">
<path d="M19.8318 12.352L22.2318 17.68L7.06384 24.016L22.2318 30.16L19.8318 35.68L0.631836 27.376V20.704L19.8318 12.352Z" fill="white"/>
<path d="M49.7145 4.38397V40H42.9945L42.6105 37.024C40.8185 39.552 38.4025 40.816 35.3625 40.816C32.1945 40.816 29.7785 39.6 28.1145 37.168C26.4825 34.736 25.6665 31.408 25.6665 27.184C25.6665 24.592 26.0985 22.272 26.9625 20.224C27.8265 18.176 29.0425 16.576 30.6105 15.424C32.2105 14.272 34.0345 13.696 36.0825 13.696C38.5145 13.696 40.5305 14.496 42.1305 16.096V3.56797L49.7145 4.38397ZM37.7145 35.248C39.4745 35.248 40.9465 34.288 42.1305 32.368V21.376C41.5225 20.64 40.8985 20.096 40.2585 19.744C39.6505 19.392 38.9465 19.216 38.1465 19.216C36.7385 19.216 35.6185 19.872 34.7865 21.184C33.9545 22.496 33.5385 24.512 33.5385 27.232C33.5385 30.208 33.8905 32.288 34.5945 33.472C35.3305 34.656 36.3705 35.248 37.7145 35.248Z" fill="white"/>
<path d="M77.8717 26.752C77.8717 27.808 77.8237 28.72 77.7277 29.488H61.9357C62.1917 31.632 62.7997 33.136 63.7597 34C64.7197 34.864 66.0477 35.296 67.7437 35.296C68.7677 35.296 69.7597 35.12 70.7197 34.768C71.6797 34.384 72.7197 33.808 73.8397 33.04L76.9597 37.264C73.9837 39.632 70.6717 40.816 67.0237 40.816C62.8957 40.816 59.7277 39.6 57.5197 37.168C55.3117 34.736 54.2077 31.472 54.2077 27.376C54.2077 24.784 54.6717 22.464 55.5997 20.416C56.5277 18.336 57.8877 16.704 59.6797 15.52C61.4717 14.304 63.6157 13.696 66.1117 13.696C69.7917 13.696 72.6717 14.848 74.7517 17.152C76.8317 19.456 77.8717 22.656 77.8717 26.752ZM70.4317 24.592C70.3677 20.688 68.9917 18.736 66.3037 18.736C64.9917 18.736 63.9677 19.216 63.2317 20.176C62.5277 21.136 62.0957 22.72 61.9357 24.928H70.4317V24.592Z" fill="white"/>
<path d="M103.693 14.512L95.6771 40H86.7011L78.4931 14.512H86.7491L91.2611 34.24L95.9651 14.512H103.693Z" fill="white"/>
<path d="M107.229 32.128C108.413 32.128 109.421 32.56 110.253 33.424C111.117 34.256 111.549 35.264 111.549 36.448C111.549 37.664 111.117 38.704 110.253 39.568C109.421 40.4 108.413 40.816 107.229 40.816C106.013 40.816 104.973 40.4 104.109 39.568C103.277 38.704 102.861 37.664 102.861 36.448C102.861 35.264 103.277 34.256 104.109 33.424C104.973 32.56 106.013 32.128 107.229 32.128Z" fill="white"/>
<path d="M138.355 4.38397V40H131.635L131.251 37.024C129.459 39.552 127.043 40.816 124.003 40.816C120.835 40.816 118.419 39.6 116.755 37.168C115.123 34.736 114.307 31.408 114.307 27.184C114.307 24.592 114.739 22.272 115.603 20.224C116.467 18.176 117.683 16.576 119.251 15.424C120.851 14.272 122.675 13.696 124.723 13.696C127.155 13.696 129.171 14.496 130.771 16.096V3.56797L138.355 4.38397ZM126.355 35.248C128.115 35.248 129.587 34.288 130.771 32.368V21.376C130.163 20.64 129.539 20.096 128.899 19.744C128.291 19.392 127.587 19.216 126.787 19.216C125.379 19.216 124.259 19.872 123.427 21.184C122.595 22.496 122.179 24.512 122.179 27.232C122.179 30.208 122.531 32.288 123.235 33.472C123.971 34.656 125.011 35.248 126.355 35.248Z" fill="white"/>
<path d="M165.792 40H159.216L158.88 36.784C157.024 39.472 154.448 40.816 151.152 40.816C148.816 40.816 147.04 40.112 145.824 38.704C144.64 37.296 144.048 35.328 144.048 32.8V14.512H151.632V31.84C151.632 33.088 151.824 33.968 152.208 34.48C152.624 34.96 153.248 35.2 154.08 35.2C155.68 35.2 157.056 34.208 158.208 32.224V14.512H165.792V40Z" fill="white"/>
<path d="M192.013 32.608C192.013 33.568 192.141 34.272 192.397 34.72C192.685 35.168 193.133 35.504 193.741 35.728L192.157 40.672C190.589 40.544 189.309 40.208 188.317 39.664C187.325 39.088 186.557 38.192 186.013 36.976C184.349 39.536 181.789 40.816 178.333 40.816C175.805 40.816 173.789 40.08 172.285 38.608C170.781 37.136 170.029 35.216 170.029 32.848C170.029 30.064 171.053 27.936 173.101 26.464C175.149 24.992 178.109 24.256 181.981 24.256H184.573V23.152C184.573 21.648 184.253 20.624 183.613 20.08C182.973 19.504 181.853 19.216 180.253 19.216C179.421 19.216 178.413 19.344 177.229 19.6C176.045 19.824 174.829 20.144 173.581 20.56L171.853 15.568C173.453 14.96 175.085 14.496 176.749 14.176C178.445 13.856 180.013 13.696 181.453 13.696C185.101 13.696 187.773 14.448 189.469 15.952C191.165 17.456 192.013 19.712 192.013 22.72V32.608ZM180.541 35.392C182.269 35.392 183.613 34.576 184.573 32.944V28.432H182.701C180.973 28.432 179.677 28.736 178.813 29.344C177.981 29.952 177.565 30.896 177.565 32.176C177.565 33.2 177.821 34 178.333 34.576C178.877 35.12 179.613 35.392 180.541 35.392Z" fill="white"/>
<path d="M211.878 13.792C212.806 13.792 213.654 13.904 214.422 14.128L213.222 21.472C212.262 21.248 211.494 21.136 210.918 21.136C209.414 21.136 208.262 21.664 207.462 22.72C206.694 23.744 206.086 25.296 205.638 27.376V40H198.054V14.512H204.678L205.302 19.456C205.878 17.696 206.742 16.32 207.894 15.328C209.078 14.304 210.406 13.792 211.878 13.792Z" fill="white"/>
<path d="M233.304 38.8C232.376 39.44 231.288 39.936 230.04 40.288C228.824 40.64 227.608 40.816 226.392 40.816C220.824 40.784 218.04 37.712 218.04 31.6V19.792H214.44V14.512H218.04V8.99197L225.624 8.12797V14.512H231.48L230.664 19.792H225.624V31.504C225.624 32.688 225.816 33.536 226.2 34.048C226.584 34.56 227.192 34.816 228.024 34.816C228.888 34.816 229.8 34.544 230.76 34L233.304 38.8Z" fill="white"/>
<path d="M257.215 26.752C257.215 27.808 257.167 28.72 257.071 29.488H241.279C241.535 31.632 242.143 33.136 243.103 34C244.063 34.864 245.391 35.296 247.087 35.296C248.111 35.296 249.103 35.12 250.063 34.768C251.023 34.384 252.063 33.808 253.183 33.04L256.303 37.264C253.327 39.632 250.015 40.816 246.367 40.816C242.239 40.816 239.071 39.6 236.863 37.168C234.655 34.736 233.551 31.472 233.551 27.376C233.551 24.784 234.015 22.464 234.943 20.416C235.871 18.336 237.231 16.704 239.023 15.52C240.815 14.304 242.959 13.696 245.455 13.696C249.135 13.696 252.015 14.848 254.095 17.152C256.175 19.456 257.215 22.656 257.215 26.752ZM249.775 24.592C249.711 20.688 248.335 18.736 245.647 18.736C244.335 18.736 243.311 19.216 242.575 20.176C241.871 21.136 241.439 22.72 241.279 24.928H249.775V24.592Z" fill="white"/>
<path d="M273.332 0.83197L279.956 2.31997L268.676 45.376L262.004 43.84L273.332 0.83197Z" fill="white"/>
<path d="M287.469 12.352L306.669 20.704V27.376L287.469 35.68L285.069 30.16L300.237 24.016L285.069 17.68L287.469 12.352Z" fill="white"/>
</svg>
